PathFileType	4	(X/Y/Z)	D:\Share\Shared_Data\Ergonomics\Sit To Stand Pertubation\S3\Unperturbed.trc
DataRate	CameraRate	NumFrames	NumMarkers	Units	OrigDataRate	OrigDataStartFrame	OrigNumFrames	
100	100	13	18	m	100	2265	211
Frame#	Time	R_Thigh			R_ASIS			R_Pelvis			V_Sacral			L_Pelvis			L_ASIS			Clavical			R_Acromium			L_Acromium			Sternum			Torso			R_Thigh_Med			R_Thigh_Lat			R_Shank_Med			R_Shank_Lat			R_Shank			R_Heel			R_Toe			
		X1	Y1	Z1	X2	Y2	Z2	X3	Y3	Z3	X4	Y4	Z4	X5	Y5	Z5	X6	Y6	Z6	X7	Y7	Z7	X8	Y8	Z8	X9	Y9	Z9	X10	Y10	Z10	X11	Y11	Z11	X12	Y12	Z12	X13	Y13	Z13	X14	Y14	Z14	X15	Y15	Z15	X16	Y16	Z16	X17	Y17	Z17	X18	Y18	Z18	

2265	22.64	0.43038483	0.65663696	0.098160965	0.43033728	0.94781378	0.12924719	0.31966031	0.95116278	0.18104359	0.21257051	0.97157867	-0.0096956434	0.3235022	0.95890729	-0.21359859	0.43076199	0.93795459	-0.155605	0.37321591	1.3719722	-0.017565605	0.29744516	1.4216613	0.1481422	0.32606247	1.4266198	-0.17317502	0.40661517	1.2992822	-0.012533692	0.38331555	1.3604995	-0.083303345	0.33982819	0.45898642	0.035262676	0.31651328	0.45710617	0.14049892	0.25894089	0.1052121	0.091029808	0.2364375	0.10128243	0.16982211	0.24732339	0.28941614	0.16864859	0.18094977	0.05284985	0.12126923	0.40065265	0.048998116	0.13674301
2266	22.65	0.43198242	0.65638824	0.099152763	0.43188339	0.94787848	0.12985454	0.32105875	0.95101971	0.18137874	0.21440683	0.97095593	-0.0097636557	0.32575992	0.95877905	-0.21364569	0.43294525	0.93800525	-0.15513277	0.37326398	1.3721289	-0.017487999	0.29788116	1.4214705	0.14837144	0.32575424	1.4262462	-0.17308182	0.40696423	1.2998459	-0.012541696	0.38338364	1.360814	-0.083325905	0.34129361	0.45892517	0.035664391	0.31737201	0.45710287	0.14064604	0.2590997	0.10524208	0.091029243	0.23654662	0.10150511	0.16974234	0.24775018	0.28952954	0.16858447	0.18100386	0.052733978	0.12101136	0.40073865	0.04890974	0.13673744
2267	22.66	0.43347717	0.65614325	0.10010282	0.43333008	0.94786206	0.13044591	0.32234143	0.95079736	0.18167313	0.21614212	0.97041248	-0.0098014317	0.32792163	0.95867877	-0.21360605	0.43503192	0.9380498	-0.15468356	0.37337213	1.3722474	-0.017385609	0.29837112	1.4212286	0.14865129	0.3254751	1.4258146	-0.17300177	0.40735657	1.3003552	-0.012521698	0.38352237	1.361064	-0.083318268	0.34269937	0.45882706	0.036014534	0.31819681	0.45706348	0.14076216	0.25927621	0.10524273	0.091014587	0.23665894	0.10169381	0.16963728	0.24814207	0.28961536	0.16849039	0.18105661	0.052727577	0.12084251	0.40081763	0.048868523	0.13674548
2268	22.67	0.43485437	0.65591138	0.10095872	0.43468652	0.94778357	0.1310126	0.32351755	0.95050208	0.18191351	0.21777466	0.96994653	-0.0098070278	0.32998181	0.95859888	-0.21345314	0.43701968	0.93809497	-0.15425737	0.37354327	1.3723103	-0.017257402	0.29889474	1.420946	0.14897079	0.32522382	1.4253384	-0.17292288	0.40779431	1.3007715	-0.012468034	0.38372217	1.3612183	-0.083277145	0.3440061	0.45869733	0.036303806	0.31898587	0.45699591	0.1408454	0.25946609	0.10522053	0.090989555	0.23676709	0.10185081	0.16951176	0.24850894	0.28968185	0.1683748	0.18110744	0.052793533	0.12073215	0.40088959	0.048876076	0.13676566
2269	22.68	0.43609964	0.65569653	0.1016853	0.43595837	0.94766461	0.1315529	0.32459457	0.95015155	0.18209541	0.21930664	0.969552	-0.0097869492	0.33194632	0.95852936	-0.21317427	0.43890988	0.93814246	-0.15384946	0.37377841	1.3723044	-0.017102682	0.29943549	1.4206385	0.1493168	0.32500534	1.424832	-0.17283076	0.40827771	1.3010615	-0.012372414	0.38397437	1.3612545	-0.083199066	0.34517447	0.45854495	0.036531162	0.31972995	0.45691196	0.14089915	0.25965137	0.10518497	0.090958191	0.23686348	0.1019788	0.1693759	0.24885866	0.2897363	0.1682533	0.18115482	0.052898685	0.12065729	0.40095309	0.048936676	0.13679915
2270	22.69	0.43720264	0.65549805	0.10226621	0.43714813	0.94752502	0.13206993	0.32558014	0.94977191	0.18222188	0.22074185	0.96922168	-0.0097531443	0.3338266	0.95846045	-0.21278085	0.44070609	0.93818945	-0.1534516	0.37407678	1.372223	-0.016921612	0.29998318	1.4203262	0.14967503	0.32483017	1.4243088	-0.17271265	0.40880405	1.3012017	-0.0122263	0.38427469	1.3611638	-0.083078522	0.34617215	0.45838153	0.036701019	0.32041504	0.45682397	0.14093005	0.25980695	0.10514628	0.090924858	0.23694302	0.1020805	0.16924336	0.24919539	0.28978384	0.16814487	0.18119672	0.053017212	0.12060417	0.40100543	0.049054699	0.13684894
2271	22.7	0.43815952	0.65531299	0.10270464	0.43825525	0.9473808	0.13256906	0.32648328	0.94939313	0.18230246	0.22208414	0.96894971	-0.0097200499	0.3356348	0.95838434	-0.21230984	0.44241257	0.93822992	-0.15305412	0.37443637	1.3720653	-0.016715315	0.3005347	1.4200282	0.15003273	0.32471259	1.4237823	-0.17256062	0.40936862	1.3011815	-0.012023615	0.38462292	1.3609506	-0.082908951	0.34697992	0.45821976	0.036821335	0.32102744	0.45674228	0.14094652	0.25991046	0.10511314	0.090894409	0.23700406	0.10215861	0.16912874	0.24951888	0.28982635	0.16806757	0.18123103	0.053131519	0.12056692	0.40104379	0.04922974	0.13691772
2272	22.71	0.43897556	0.65513782	0.10302116	0.43927765	0.94724237	0.1330556	0.32731485	0.9490437	0.18235182	0.22333736	0.96873224	-0.0097023296	0.33738159	0.95829724	-0.21181142	0.44403415	0.93825684	-0.15264783	0.37485501	1.3718372	-0.016485413	0.30109451	1.4197614	0.15038187	0.32467001	1.4232642	-0.17237331	0.4099664	1.3010048	-0.011762494	0.38502072	1.3606304	-0.082685837	0.347595	0.45807147	0.036902832	0.32155771	0.45667389	0.14095879	0.25995117	0.10509108	0.090872292	0.23704773	0.10221581	0.16904417	0.24982474	0.28986316	0.16803488	0.18125667	0.05323196	0.12054443	0.40106705	0.0494491	0.13700427
2273	22.72	0.43966479	0.65496954	0.10324908	0.44021259	0.94711566	0.13353325	0.32808646	0.94874646	0.1823869	0.22450577	0.96856561	-0.0097124023	0.3390773	0.95819965	-0.21133032	0.44557666	0.93826422	-0.15222559	0.37533011	1.3715518	-0.016233339	0.30167291	1.4195372	0.15071974	0.32472183	1.422766	-0.17215845	0.41059244	1.3006895	-0.011445674	0.38546957	1.3602274	-0.08240844	0.34803192	0.45794568	0.036958157	0.32200293	0.45662155	0.14097871	0.25993423	0.10508242	0.090863594	0.23707773	0.10225522	0.16899698	0.25010651	0.28989182	0.16805334	0.18127417	0.05331551	0.120537	0.40107767	0.049678329	0.13709897
2274	22.73	0.44024792	0.6548064	0.10342756	0.44105768	0.9470033	0.13400327	0.32880957	0.94851672	0.18242291	0.22559477	0.96844531	-0.0097575808	0.34073087	0.95809601	-0.210896	0.44704724	0.93824896	-0.15178288	0.37585876	1.3712273	-0.015960131	0.30228317	1.419364	0.15104736	0.32488605	1.4222988	-0.17193689	0.41124176	1.3002667	-0.011079128	0.38597015	1.3597708	-0.082079819	0.34831934	0.45784821	0.036999805	0.32236707	0.45658487	0.14101758	0.25987775	0.10508712	0.090871124	0.23710028	0.10228107	0.16898831	0.25035867	0.28991006	0.16812149	0.18128586	0.053383869	0.12054379	0.40108212	0.049861767	0.13718332
2275	22.74	0.44074844	0.6546496	0.10359351	0.44181171	0.94690625	0.13446422	0.32949347	0.948362	0.18247032	0.22661099	0.96836285	-0.0098388243	0.34234711	0.95799268	-0.21052391	0.4484545	0.93821265	-0.15131804	0.37643726	1.3708844	-0.015666782	0.30293719	1.4192449	0.15136781	0.32517694	1.421873	-0.17174446	0.41190982	1.2997756	-0.010669563	0.38652225	1.3592927	-0.081706299	0.34849609	0.45778171	0.03703809	0.32266052	0.4565614	0.14108318	0.25980453	0.1051036	0.090894089	0.23712315	0.10229845	0.16901366	0.25057939	0.28991821	0.16823022	0.18129492	0.053441761	0.12056116	0.40108765	0.049956841	0.13724214
2276	22.75	0.44118875	0.65450354	0.10377421	0.44247461	0.94682538	0.1349128	0.33014343	0.94828235	0.1825347	0.22756158	0.96830542	-0.0099518871	0.34392441	0.95789636	-0.21021849	0.44980753	0.93816162	-0.15083218	0.37706241	1.3705444	-0.015354734	0.30364206	1.4191787	0.15168478	0.32560571	1.4214988	-0.1716282	0.41259244	1.2992576	-0.010223238	0.38712488	1.3588253	-0.081296669	0.34860489	0.45774634	0.037080685	0.32289819	0.4565481	0.14117822	0.25973538	0.10512917	0.090928001	0.23715414	0.10231202	0.16906422	0.25077081	0.28991962	0.16836469	0.18130476	0.053495361	0.12058295	0.40109726	0.049981667	0.13728128
2277	22.76	0.44158551	0.65437421	0.10398266	0.44304623	0.94676178	0.13534496	0.33075949	0.94827197	0.18261823	0.22845279	0.96825793	-0.010088874	0.34545407	0.95781335	-0.20997549	0.45111389	0.93810553	-0.15032941	0.37773166	1.3702273	-0.015026015	0.30439859	1.4191606	0.15200148	0.32618213	1.4211851	-0.17163918	0.41328619	1.2987515	-0.0097467413	0.38777609	1.3583969	-0.080860809	0.34868454	0.4577406	0.03713279	0.32309647	0.45654236	0.14130008	0.25968494	0.10516064	0.090966461	0.23720032	0.1023252	0.1691295	0.25093732	0.28992001	0.16850748	0.18131848	0.053550884	0.12060172	0.40110953	0.050009212	0.13732585
